{"title":"Megamind 2010 720p BRRip x264 Feel-Free","uid":6178512,"size":1362174698,"categoryP":"video","categoryS":"hd___movies","magnet":"?xt=urn:btih:529c30e78fae17f2021af85a485b9da907eaa7bd&amp;dn=Megamind+2010+720p+BRRip+x264+Feel-Free&amp;tr=udp%3A%2F%2Ftracker.openbittorrent.com%3A80&amp;tr=udp%3A%2F%2Fopen.demonii.com%3A1337&amp;tr=udp%3A%2F%2Ftracker.coppersurfer.tk%3A6969&amp;tr=udp%3A%2F%2Fexodus.desync.com%3A6969","seeders":0,"leechers":1,"uploader":"neon","files":12,"time":1297861476,"description":"Genre:Animation | Comedy | Family\nLanguage:English\nIMDb:http://www.imdb.com/title/tt1001526/\nSource:BluRay.x264-Felony\nSubtitles:Romana\n\n\nFormat : MPEG-4\nFormat profile : Base Media\nCodec ID : isom\nFile size : 1.26 GiB\nDuration : 1h 35mn\nOverall bit rate : 1 891 Kbps\nMovie name : Megamind 2010 720p BRRip x264 Feel-Free\n\n\nVideo\nFormat settings, CABAC : Yes\nFormat settings, ReFrames : 4 frames\nCodec ID : avc1\nCodec ID/Info : Advanced Video Coding\nDuration : 1h 35mn\nBit rate mode : Variable\nBit rate : 1 500 Kbps\nWidth : 1 280 pixels\nHeight : 544 pixels\nDisplay aspect ratio : 2.35:1\nFrame rate mode : Constant\nFrame rate : 23.976 fps\nColor space : YUV\nChroma subsampling : 4:2:0\nBit depth : 8 bits\nScan type : Progressive\nBits/(Pixel*Frame) : 0.090\nStream size : 1.00 GiB (79%)\nWriting library : x264\n\nAudio\nID : 2\nFormat : AAC\nFormat/Info : Advanced Audio Codec\nFormat version : Version 4\nFormat profile : LC\nCodec ID : 40\nDuration : 1h 35mn\nBit rate mode : Variable\nBit rate : 384 Kbps\nChannel(s) : 6 channels\nChannel positions : Front: L C R, Side: L R, LFE\nSampling rate : 48.0 KHz\nStream size : 262 MiB (20%)\n\n\nPlot:\nThe supervillain Megamind finally conquers his nemesis, the hero Metro Man... but finds his life pointless without a hero to fight\n\n","torrent":{"xt":"urn:btih:529c30e78fae17f2021af85a485b9da907eaa7bd","amp;dn":"Megamind+2010+720p+BRRip+x264+Feel-Free","amp;tr":["udp%3A%2F%2Ftracker.openbittorrent.com%3A80","udp%3A%2F%2Fopen.demonii.com%3A1337","udp%3A%2F%2Ftracker.coppersurfer.tk%3A6969","udp%3A%2F%2Fexodus.desync.com%3A6969"],"infoHash":"529c30e78fae17f2021af85a485b9da907eaa7bd","infoHashBuffer":{"type":"Buffer","data":[82,156,48,231,143,174,23,242,2,26,248,90,72,91,157,169,7,234,167,189]},"announce":[],"urlList":[]}}